<?xml version="1.0" encoding="utf-8"?>
<!-- Generator: Adobe Illustrator 19.2.1, SVG Export Plug-In . SVG Version: 6.00 Build 0)  -->
<svg version="1.1" id="Layer_1" xmlns="http://www.w3.org/2000/svg" xmlns:xlink="http://www.w3.org/1999/xlink" x="0px" y="0px"
	 viewBox="0 0 64 64" style="enable-background:new 0 0 64 64;" xml:space="preserve">
<style type="text/css">
	.st0{fill:#FFFFFF;}
</style>
<g>
	<circle class="st0" cx="37.6" cy="28.8" r="28.3"/>
	<g>
		<path d="M37.4-3.5c9,0,16.6,3.1,22.7,9.3c6.2,6.2,9.3,13.8,9.3,22.7c0,9-3,16.5-9.1,22.5c-6.5,6.4-14.1,9.5-22.9,9.5
			c-8.6,0-16.2-3.1-22.5-9.4c-6.3-6.3-9.4-13.8-9.4-22.6c0-8.8,3.1-16.3,9.4-22.7C21.1-0.4,28.6-3.5,37.4-3.5z M37.6,2.3
			c-7.3,0-13.4,2.6-18.5,7.7c-5.2,5.3-7.8,11.5-7.8,18.6c0,7.1,2.6,13.2,7.8,18.4c5.2,5.2,11.4,7.8,18.5,7.8
			c7.1,0,13.3-2.6,18.6-7.8c5-4.8,7.5-11,7.5-18.3c0-7.3-2.6-13.5-7.7-18.6C51,4.8,44.8,2.3,37.6,2.3z M46.1,20.6v13.1h-3.7v15.5
			h-9.9V33.6h-3.7V20.6c0-0.6,0.2-1.1,0.6-1.5c0.4-0.4,0.9-0.6,1.5-0.6h13.1c0.5,0,1,0.2,1.4,0.6C45.9,19.5,46.1,20,46.1,20.6z
			 M33,12.3c0-3,1.5-4.5,4.5-4.5S42,9.3,42,12.3c0,3-1.5,4.5-4.5,4.5S33,15.3,33,12.3z"/>
	</g>
</g>
</svg>
