<?xml version="1.0" encoding="utf-8"?>
<!-- Generator: Adobe Illustrator 18.0.0, SVG Export Plug-In . SVG Version: 6.00 Build 0)  -->
<svg version="1.1" id="Layer_1" xmlns="http://www.w3.org/2000/svg" xmlns:xlink="http://www.w3.org/1999/xlink" x="0px" y="0px"
	 viewBox="0 0 64 64" enable-background="new 0 0 64 64" xml:space="preserve">
<g>
	<circle fill="#FFFFFF" cx="-12.1" cy="28.7" r="15.8"/>
	<path d="M-12.3,11.2c4.9,0,9.1,1.7,12.5,5.1c1.6,1.6,2.9,3.5,3.7,5.6c0.9,2.1,1.3,4.4,1.3,6.7c0,2.4-0.4,4.6-1.3,6.7
		c-0.8,2.1-2.1,3.9-3.7,5.5c-1.7,1.7-3.6,3-5.8,3.9c-2.2,0.9-4.4,1.3-6.7,1.3s-4.5-0.4-6.6-1.3c-2.1-0.9-4-2.2-5.7-3.8
		c-1.7-1.7-3-3.6-3.8-5.7s-1.3-4.3-1.3-6.7c0-2.3,0.4-4.5,1.3-6.7s2.2-4,3.9-5.7C-21.2,12.9-17.1,11.2-12.3,11.2z M-12.2,14.3
		c-4,0-7.4,1.4-10.1,4.2c-1.4,1.4-2.4,3-3.2,4.7c-0.7,1.7-1.1,3.6-1.1,5.5c0,1.9,0.4,3.7,1.1,5.4c0.7,1.7,1.8,3.3,3.2,4.7
		c1.4,1.4,2.9,2.4,4.7,3.1c1.7,0.7,3.5,1.1,5.4,1.1c1.9,0,3.7-0.4,5.5-1.1c1.8-0.7,3.3-1.8,4.8-3.2c2.7-2.7,4.1-6,4.1-10
		c0-1.9-0.4-3.8-1.1-5.5c-0.7-1.7-1.7-3.3-3.1-4.6C-4.9,15.7-8.3,14.3-12.2,14.3z M-12.4,25.8l-2.3,1.2c-0.3-0.5-0.6-0.9-0.9-1.1
		c-0.4-0.2-0.7-0.3-1-0.3c-1.6,0-2.3,1-2.3,3.1c0,0.9,0.2,1.7,0.6,2.2c0.4,0.6,1,0.8,1.8,0.8c1,0,1.7-0.5,2.2-1.5l2.2,1.1
		c-0.5,0.9-1.1,1.5-1.9,2c-0.8,0.5-1.7,0.7-2.7,0.7c-1.6,0-2.8-0.5-3.8-1.4c-1-1-1.4-2.3-1.4-4c0-1.7,0.5-3,1.5-4
		c1-1,2.2-1.5,3.7-1.5C-14.9,23.2-13.4,24.1-12.4,25.8z M-2.3,25.8L-4.7,27c-0.2-0.5-0.6-0.9-0.9-1.1c-0.4-0.2-0.7-0.3-1-0.3
		c-1.6,0-2.3,1-2.3,3.1c0,0.9,0.2,1.7,0.6,2.2c0.4,0.6,1,0.8,1.8,0.8c1,0,1.7-0.5,2.2-1.5l2.2,1.1c-0.5,0.9-1.1,1.5-1.9,2
		c-0.8,0.5-1.7,0.7-2.7,0.7c-1.6,0-2.8-0.5-3.8-1.4c-0.9-1-1.4-2.3-1.4-4c0-1.7,0.5-3,1.5-4c1-1,2.2-1.5,3.7-1.5
		C-4.8,23.2-3.3,24.1-2.3,25.8z"/>
</g>
<g>
	<ellipse fill="#FFFFFF" cx="25.6" cy="28.8" rx="15.5" ry="15.5"/>
	<g>
		<path d="M25.5,11.2c4.9,0,9.1,1.7,12.4,5.1c3.4,3.4,5.1,7.5,5.1,12.4c0,4.9-1.6,9-5,12.3c-3.6,3.5-7.7,5.2-12.5,5.2
			c-4.7,0-8.9-1.7-12.3-5.1S8,33.5,8,28.7s1.7-8.9,5.1-12.4C16.6,12.9,20.7,11.2,25.5,11.2z M25.6,14.3c-4,0-7.3,1.4-10.1,4.2
			c-2.8,2.9-4.3,6.3-4.3,10.2s1.4,7.2,4.3,10.1S21.7,43,25.6,43s7.3-1.4,10.2-4.3c2.7-2.6,4.1-6,4.1-10s-1.4-7.4-4.2-10.2
			C33,15.7,29.6,14.3,25.6,14.3z M30.3,24.3v7.2h-2V40h-5.4v-8.5h-2v-7.1c0-0.3,0.1-0.6,0.3-0.8s0.5-0.3,0.8-0.3h7.2
			c0.3,0,0.5,0.1,0.8,0.3C30.2,23.7,30.3,24,30.3,24.3z M23.1,19.8c0-1.6,0.8-2.5,2.5-2.5s2.5,0.8,2.5,2.5s-0.8,2.5-2.5,2.5
			S23.1,21.4,23.1,19.8z"/>
	</g>
</g>
</svg>
