<?xml version="1.0" encoding="utf-8"?>
<!-- Generator: Adobe Illustrator 19.1.1, SVG Export Plug-In . SVG Version: 6.00 Build 0)  -->
<svg version="1.1" id="Layer_1" xmlns="http://www.w3.org/2000/svg" xmlns:xlink="http://www.w3.org/1999/xlink" x="0px" y="0px"
	 viewBox="0 0 200 200" style="enable-background:new 0 0 200 200;" xml:space="preserve">
<style type="text/css">
	.st0{opacity:0.85;fill:#1C529D;enable-background:new    ;}
	.st1{opacity:0.85;fill:#3881B7;enable-background:new    ;}
	.st2{opacity:0.85;fill:#EF9470;enable-background:new    ;}
	.st3{opacity:0.85;fill:#82B8D6;enable-background:new    ;}
	.st4{opacity:0.85;fill:#A01D25;enable-background:new    ;}
	.st5{opacity:0.85;fill:none;stroke:#FFFFFF;stroke-miterlimit:10;}
</style>
<g>
	<g>
		<path id="path5264_1_" inkscape:connector-curvature="0" class="st0" d="M83.5,134l-23.4,46.9l37.1-34.7L83.5,134z"/>
		<path id="path5266_1_" inkscape:connector-curvature="0" class="st0" d="M70.7,144.4l-55.5-22.8l66.7,11.9L70.7,144.4z"/>
		<path id="path5268_1_" inkscape:connector-curvature="0" class="st0" d="M67.1,161.3l-34.7-29.7l41.7,15.5L67.1,161.3z"/>
		<path id="path5270_1_" inkscape:connector-curvature="0" class="st0" d="M25.5,127.4l32.3,32.6L17.5,141L25.5,127.4z"/>
		<path id="path5272_1_" inkscape:connector-curvature="0" class="st1" d="M45.3,124.5l-40.6-5.8l23.1-26.8L45.3,124.5z"/>
		<path id="path5274_1_" inkscape:connector-curvature="0" class="st1" d="M0,116.5l30.9-28.7L13.8,63.5L0,116.5z"/>
		<path id="path5276_1_" inkscape:connector-curvature="0" class="st2" d="M88.4,19.1l27,64.3L67.6,21.3L88.4,19.1z"/>
		<path id="path5278_1_" inkscape:connector-curvature="0" class="st2" d="M112.4,82.8L72.3,70.7L90,54.4L112.4,82.8L112.4,82.8z"/>
		<path id="path5280_1_" inkscape:connector-curvature="0" class="st2" d="M66.1,53.6l4.9,16L88.9,53L66.1,53.6z"/>
		<path id="path5282_1_" inkscape:connector-curvature="0" class="st2" d="M86.9,50.5L66.6,22.4L42.1,53L86.9,50.5z"/>
		<path id="path5284_1_" inkscape:connector-curvature="0" class="st2" d="M59.8,25.7L23.7,69.9l-8.6-8.6L59.8,25.7z"/>
		<path id="path5286_1_" inkscape:connector-curvature="0" class="st2" d="M63.7,54.7L72.8,77l-40.1,7.4L63.7,54.7z"/>
		<path id="path5288_1_" inkscape:connector-curvature="0" class="st2" d="M73.3,72.9l13.8,3.9L74.4,79L73.3,72.9z"/>
		<path id="path5290_1_" inkscape:connector-curvature="0" class="st2" d="M37.2,57.2l23.4-3L32.5,82.8L37.2,57.2z"/>
		<path id="path5292_1_" inkscape:connector-curvature="0" class="st2" d="M34.3,60.7l-3.9,17.9l-6.5-6.3L34.3,60.7z"/>
		<path id="path5294_1_" inkscape:connector-curvature="0" class="st3" d="M86.1,78.7l-53.3,8.6l36.2,12.1L86.1,78.7z"/>
		<path id="path5296_1_" inkscape:connector-curvature="0" class="st3" d="M32.8,88.3L30.9,95l35.6,7.2L32.8,88.3z"/>
		<path id="path5298_1_" inkscape:connector-curvature="0" class="st3" d="M75.2,97.2l-26,26.8l38.2,8.3L75.2,97.2z"/>
		<path id="path5300_1_" inkscape:connector-curvature="0" class="st3" d="M63.2,104.6l-16.1,16.8L33.6,98.6L63.2,104.6z"/>
		<path id="path5302_1_" inkscape:connector-curvature="0" class="st3" d="M88.9,79.8L76.2,96.3L94.1,130L88.9,79.8z"/>
		<path id="path5304_1_" inkscape:connector-curvature="0" class="st3" d="M89.5,133.3l24.2-11.6l1,26.2L89.5,133.3z"/>
		<path id="path5306_1_" inkscape:connector-curvature="0" class="st3" d="M98,126.4l21.3-15.5L92.8,80.6L98,126.4z"/>
		<path id="path5308_1_" inkscape:connector-curvature="0" class="st3" d="M109.5,96.1l36.9,41.1l0.5-20.4L109.5,96.1z"/>
		<path id="path5310_1_" inkscape:connector-curvature="0" class="st3" d="M142.4,109.6L106,83.2l-4.6,4.7L142.4,109.6z"/>
		<path id="path5312_1_" inkscape:connector-curvature="0" class="st3" d="M120.7,114.8l-7,3.9l29.9,22.3L120.7,114.8z"/>
		<path id="path5314_1_" inkscape:connector-curvature="0" class="st3" d="M118.3,127l21.1,15.5l-21.3,7.7L118.3,127z"/>
		<path id="path5316_1_" inkscape:connector-curvature="0" class="st4" d="M94.9,19.4l26.3,0.8l-3.9,61.5L94.9,19.4z"/>
		<path id="path5318_1_" inkscape:connector-curvature="0" class="st4" d="M124.6,21.6l27,10.2L122,48.1L124.6,21.6z"/>
		<path id="path5320_1_" inkscape:connector-curvature="0" class="st4" d="M122,50.8l-1.6,30.6l19.8,16L122,50.8z"/>
		<path id="path5322_1_" inkscape:connector-curvature="0" class="st4" d="M126.9,49.7l26.5-16.6l-21.3,33.9L126.9,49.7z"/>
		<path id="path5324_1_" inkscape:connector-curvature="0" class="st4" d="M155.3,35.1L183.4,53L200,83.9L155.3,35.1z"/>
		<path id="path5326_1_" inkscape:connector-curvature="0" class="st4" d="M197.9,87l-30.7,7.2l-3.4-45.8L197.9,87z"/>
		<path id="path5328_1_" inkscape:connector-curvature="0" class="st4" d="M153.3,36.1l8.2,6.7l-22.9,18.3L153.3,36.1z"/>
		<path id="path5330_1_" inkscape:connector-curvature="0" class="st4" d="M162,53.6l0.3,41.9l-21.1-3L162,53.6z"/>
		<path id="path5332_1_" inkscape:connector-curvature="0" class="st4" d="M187.3,101.6l9.9-11.3l-53.8,15.5L187.3,101.6z"/>
		<path id="path5334_1_" inkscape:connector-curvature="0" class="st4" d="M161.2,98l-17.9-1.9l0.3,8L161.2,98z"/>
		<path id="path5336_1_" inkscape:connector-curvature="0" class="st4" d="M195.8,95.8l-30.4,32.3l15.9,1.1L195.8,95.8z"/>
		<path id="path5338_1_" inkscape:connector-curvature="0" class="st4" d="M182.3,104.1l-36.7,4.1l13.8,20.4L182.3,104.1z"/>
		<path id="path5340_1_" inkscape:connector-curvature="0" class="st4" d="M161.5,47l-21.1,42.1l7-33L161.5,47z"/>
		<path id="path5342_1_" inkscape:connector-curvature="0" class="st4" d="M145.1,58.8l-0.5,0.1l-13.2,11.2l7.3,18.4L145.1,58.8z"/>
	</g>
	<polygon class="st5" points="13.8,63.5 15.1,61.3 59.8,25.7 67.6,21.3 88.4,19.1 94.9,19.4 121.2,20.2 124.6,21.6 151.6,31.8 
		153.4,33.2 155.3,35.1 183.4,53 200,83.9 197.9,87 197.1,90.3 195.8,95.8 181.3,129.2 165.4,128.1 159.4,128.6 146.9,116.8 
		146.4,137.2 143.6,141 139.4,142.4 118.1,150.1 114.7,147.9 89.5,133.3 97.2,146.2 60.1,180.9 67.1,161.3 57.8,160.1 17.5,141 
		23.9,126.4 15.2,121.6 4.7,118.7 0,116.5 	"/>
</g>
</svg>
