<?xml version="1.0" encoding="utf-8"?>
<!-- Generator: Adobe Illustrator 19.1.1, SVG Export Plug-In . SVG Version: 6.00 Build 0)  -->
<svg version="1.1" id="Layer_1" xmlns="http://www.w3.org/2000/svg" xmlns:xlink="http://www.w3.org/1999/xlink" x="0px" y="0px"
	 viewBox="0 0 202 165" style="enable-background:new 0 0 202 165;" xml:space="preserve">
<style type="text/css">
	.st0{opacity:0.85;fill:#1C529D;enable-background:new    ;}
	.st1{opacity:0.85;fill:#3881B7;enable-background:new    ;}
	.st2{opacity:0.85;fill:#EF9470;enable-background:new    ;}
	.st3{opacity:0.85;fill:#82B8D6;enable-background:new    ;}
	.st4{opacity:0.85;fill:#A01D25;enable-background:new    ;}
	.st5{opacity:0.85;fill:none;stroke:#FFFFFF;stroke-miterlimit:10;}
</style>
<g>
	<g>
		<path id="path5264_1_" inkscape:connector-curvature="0" class="st0" d="M84.5,116.5l-23.4,46.9l37.1-34.7L84.5,116.5z"/>
		<path id="path5266_1_" inkscape:connector-curvature="0" class="st0" d="M71.7,126.9l-55.5-22.8L82.8,116L71.7,126.9z"/>
		<path id="path5268_1_" inkscape:connector-curvature="0" class="st0" d="M68.1,143.8l-34.7-29.7l41.7,15.5L68.1,143.8z"/>
		<path id="path5270_1_" inkscape:connector-curvature="0" class="st0" d="M26.5,109.9l32.3,32.6l-40.4-19.1L26.5,109.9z"/>
		<path id="path5272_1_" inkscape:connector-curvature="0" class="st1" d="M46.3,107l-40.6-5.8l23.1-26.8L46.3,107z"/>
		<path id="path5274_1_" inkscape:connector-curvature="0" class="st1" d="M1,99l30.9-28.7L14.8,46L1,99z"/>
		<path id="path5276_1_" inkscape:connector-curvature="0" class="st2" d="M89.4,1.6l27,64.3L68.6,3.8L89.4,1.6z"/>
		<path id="path5278_1_" inkscape:connector-curvature="0" class="st2" d="M113.4,65.3L73.3,53.2L91,36.9L113.4,65.3L113.4,65.3z"/>
		<path id="path5280_1_" inkscape:connector-curvature="0" class="st2" d="M67.1,36.1l4.9,16l17.9-16.6L67.1,36.1z"/>
		<path id="path5282_1_" inkscape:connector-curvature="0" class="st2" d="M87.9,33L67.6,4.9L43.1,35.5L87.9,33z"/>
		<path id="path5284_1_" inkscape:connector-curvature="0" class="st2" d="M60.8,8.2L24.7,52.4l-8.6-8.6L60.8,8.2z"/>
		<path id="path5286_1_" inkscape:connector-curvature="0" class="st2" d="M64.7,37.2l9.1,22.3L33.8,67L64.7,37.2z"/>
		<path id="path5288_1_" inkscape:connector-curvature="0" class="st2" d="M74.3,55.4l13.8,3.9l-12.7,2.2L74.3,55.4z"/>
		<path id="path5290_1_" inkscape:connector-curvature="0" class="st2" d="M38.2,39.7l23.4-3L33.5,65.3L38.2,39.7z"/>
		<path id="path5292_1_" inkscape:connector-curvature="0" class="st2" d="M35.3,43.2l-3.9,17.9l-6.5-6.3L35.3,43.2z"/>
		<path id="path5294_1_" inkscape:connector-curvature="0" class="st3" d="M87.1,61.2l-53.3,8.6l36.2,12.1L87.1,61.2z"/>
		<path id="path5296_1_" inkscape:connector-curvature="0" class="st3" d="M33.8,70.8l-1.8,6.6l35.6,7.2L33.8,70.8z"/>
		<path id="path5298_1_" inkscape:connector-curvature="0" class="st3" d="M76.2,79.7l-26,26.8l38.2,8.3L76.2,79.7z"/>
		<path id="path5300_1_" inkscape:connector-curvature="0" class="st3" d="M64.2,87.1L48.1,104L34.6,81.1L64.2,87.1z"/>
		<path id="path5302_1_" inkscape:connector-curvature="0" class="st3" d="M89.9,62.3L77.2,78.8l17.9,33.7L89.9,62.3z"/>
		<path id="path5304_1_" inkscape:connector-curvature="0" class="st3" d="M90.5,115.8l24.2-11.6l1,26.2L90.5,115.8z"/>
		<path id="path5306_1_" inkscape:connector-curvature="0" class="st3" d="M99,108.9l21.3-15.5L93.8,63.1L99,108.9z"/>
		<path id="path5308_1_" inkscape:connector-curvature="0" class="st3" d="M110.5,78.6l36.9,41.1l0.5-20.4L110.5,78.6z"/>
		<path id="path5310_1_" inkscape:connector-curvature="0" class="st3" d="M143.4,92.1L107,65.7l-4.6,4.7L143.4,92.1z"/>
		<path id="path5312_1_" inkscape:connector-curvature="0" class="st3" d="M121.7,97.3l-7,3.9l29.9,22.3L121.7,97.3z"/>
		<path id="path5314_1_" inkscape:connector-curvature="0" class="st3" d="M119.3,109.5l21.1,15.5l-21.3,7.7L119.3,109.5z"/>
		<path id="path5316_1_" inkscape:connector-curvature="0" class="st4" d="M95.9,1.9l26.3,0.8l-3.9,61.5L95.9,1.9z"/>
		<path id="path5318_1_" inkscape:connector-curvature="0" class="st4" d="M125.6,4.1l27,10.2L123,30.6L125.6,4.1z"/>
		<path id="path5320_1_" inkscape:connector-curvature="0" class="st4" d="M123,33.3l-1.6,30.6l19.8,16L123,33.3z"/>
		<path id="path5322_1_" inkscape:connector-curvature="0" class="st4" d="M127.9,32.2l26.5-16.6l-21.3,33.9L127.9,32.2z"/>
		<path id="path5324_1_" inkscape:connector-curvature="0" class="st4" d="M156.3,17.6l28.1,17.9L201,66.4L156.3,17.6z"/>
		<path id="path5326_1_" inkscape:connector-curvature="0" class="st4" d="M198.9,69.5l-30.7,7.2l-3.4-45.8L198.9,69.5z"/>
		<path id="path5328_1_" inkscape:connector-curvature="0" class="st4" d="M154.3,18.6l8.2,6.7l-22.9,18.3L154.3,18.6z"/>
		<path id="path5330_1_" inkscape:connector-curvature="0" class="st4" d="M163,36.1l0.3,41.9l-21.1-3L163,36.1z"/>
		<path id="path5332_1_" inkscape:connector-curvature="0" class="st4" d="M188.3,84.1l9.9-11.3l-53.8,15.5L188.3,84.1z"/>
		<path id="path5334_1_" inkscape:connector-curvature="0" class="st4" d="M162.2,80.5l-17.9-1.9l0.3,8L162.2,80.5z"/>
		<path id="path5336_1_" inkscape:connector-curvature="0" class="st4" d="M196.8,78.3l-30.4,32.3l15.9,1.1L196.8,78.3z"/>
		<path id="path5338_1_" inkscape:connector-curvature="0" class="st4" d="M183.3,86.6l-36.7,4.1l13.8,20.4L183.3,86.6z"/>
		<path id="path5340_1_" inkscape:connector-curvature="0" class="st4" d="M162.5,29.5l-21.1,42.1l7-33L162.5,29.5z"/>
		<path id="path5342_1_" inkscape:connector-curvature="0" class="st4" d="M146.1,41.3l-0.5,0.1l-13.2,11.2l7.3,18.4L146.1,41.3z"/>
	</g>
	<polygon class="st5" points="14.8,46 16.1,43.8 60.8,8.2 68.6,3.8 89.4,1.6 95.9,1.9 122.2,2.7 125.6,4.1 152.6,14.3 154.4,15.7 
		156.3,17.6 184.4,35.5 201,66.4 198.9,69.5 198.1,72.8 196.8,78.3 182.3,111.7 166.4,110.6 160.4,111.1 147.9,99.3 147.4,119.7 
		144.6,123.5 140.4,124.9 119.1,132.6 115.7,130.4 90.5,115.8 98.2,128.7 61.1,163.4 68.1,143.8 58.8,142.6 18.5,123.5 24.9,108.9 
		16.2,104.1 5.7,101.2 1,99 	"/>
</g>
</svg>
